<?xml version="1.0" standalone="no"?><!DOCTYPE svg PUBLIC "-//W3C//DTD SVG 1.1//EN" "http://www.w3.org/Graphics/SVG/1.1/DTD/svg11.dtd"><svg t="1585803663862" class="icon" viewBox="0 0 1024 1024" version="1.1" xmlns="http://www.w3.org/2000/svg" p-id="3860" xmlns:xlink="http://www.w3.org/1999/xlink" width="200" height="200"><defs><style type="text/css"></style></defs><path d="M682.944835 631.034047c-47.917336-63.694671-117.40699-110.237707-197.62601-128.825041 66.840314-29.915333 113.396653-96.947006 113.396653-174.86768 0-105.758696-85.795015-191.501522-191.625342-191.501522-38.609343 0-74.553996 11.416004-104.646362 31.041994-6.936993-3.527336-14.781658-5.503341-23.109324-5.503341-28.217668 0-51.094702 22.86066-51.094702 51.064003 0 10.222829 3.001357 19.736507 8.181333 27.727505-13.406335 26.139334-20.957311 55.762001-20.957311 87.171362 0 77.920674 46.556339 144.952346 113.396653 174.86768C180.045097 536.692379 68.141448 667.447375 62.389444 825.2504l587.479065 0c-11.489682-22.481014-17.972327-47.947012-17.972327-74.93569C631.895159 703.393052 651.492496 661.066037 682.944835 631.034047z" p-id="3861" fill="#d42379"></path><path d="M874.044198 570.266032c-31.789007-30.441313-70.618361-53.595662-113.808022-66.797335 44.975331-27.89635 74.92034-77.716013 74.92034-134.502343 0-87.375-70.866001-158.189835-158.299329-158.189835-23.315008 0-45.444005 5.04183-65.379033 14.086833 16.861016 31.524994 26.417673 67.558675 26.417673 105.816001 0 59.07035-22.789029 112.812345-60.036351 152.914692-1.288343 0.995677-2.400676 2.166339-3.321652 3.51301-0.453325 0.468674-0.907673 0.936325-1.376347 1.404999 0.116657 0.116657 0.248663 0.204661 0.36532 0.321318-1.00898 2.020006-1.581008 4.273327-1.581008 6.703679 0 7.611352 5.679349 13.875009 13.025665 14.839986 47.025013 25.436322 87.990007 60.59303 120.203686 102.829993 26.198685-17.532305 57.694003-27.748994 91.575672-27.748994 21.206998 0 41.463344 3.981684 60.09468 11.30037 3.263323 2.224668 6.791683 4.53734 10.201339 6.789637 8.694009 5.737678 16.025998 11.883655 19.627013 11.883655 8.283664 0 14.987343-6.701632 14.987343-14.986319C901.661186 594.679048 886.235868 579.193355 874.044198 570.266032zM961.34552 759.653403c0.103354 1.87265 0.190335 3.745301 0.264013 5.64865l-0.673335 0C961.112206 763.42838 961.244212 761.555729 961.34552 759.653403z" p-id="3862" fill="#d42379"></path><path d="M796.751834 615.430674c-74.496691 0-134.884037 60.387345-134.884037 134.884037 0 74.495668 60.387345 134.883013 134.884037 134.883013 74.495668 0 134.883013-60.387345 134.883013-134.883013C931.634848 675.818019 871.247502 615.430674 796.751834 615.430674zM871.657848 765.30103l-59.918671 0 0 59.888995c0 8.314363-6.644327 15.045671-14.987343 15.045671-8.284687 0-14.987343-6.848988-14.987343-15.045671l0-59.888995-59.919694 0c-8.283664 0-15.015995-6.67298-15.015995-14.986319 0-8.284687 6.834662-14.987343 15.015995-14.987343l59.919694 0 0-59.919694c0-8.28264 6.644327-15.015995 14.987343-15.015995 8.283664 0 14.987343 6.821359 14.987343 15.015995l0 59.919694 59.918671 0c8.284687 0 15.017018 6.64535 15.017018 14.987343C886.673843 758.598374 879.839181 765.30103 871.657848 765.30103z" p-id="3863" fill="#d42379"></path></svg>