<?xml version="1.0" standalone="no"?><!DOCTYPE svg PUBLIC "-//W3C//DTD SVG 1.1//EN" "http://www.w3.org/Graphics/SVG/1.1/DTD/svg11.dtd"><svg t="1585804012239" class="icon" viewBox="0 0 1190 1024" version="1.1" xmlns="http://www.w3.org/2000/svg" p-id="5037" xmlns:xlink="http://www.w3.org/1999/xlink" width="232.421875" height="200"><defs><style type="text/css"></style></defs><path d="M982.827479 624.00694a372.072678 372.072678 0 0 1 204.714627 294.134501H1099.734745a282.279537 282.279537 0 0 0-172.150801-223.512359c-2.896553 2.538217-5.88269 4.777819-8.838966 7.166729a489.860854 489.860854 0 0 0-57.30397-71.368676 295.627569 295.627569 0 0 0 73.160358-97.945296c34.504814-67.188084 57.692168-149.008239 57.692168-203.654547a172.837613 172.837613 0 0 0-137.362305-169.015358 344.45091 344.45091 0 0 0-50.301479-90.479953c4.971918-0.298614 9.958767-0.447921 14.930686-0.447921a260.241845 260.241845 0 0 1 259.943231 259.943232c0 71.965903-28.696777 173.793177-71.413468 253.224423a476.139555 476.139555 0 0 1-25.26272 41.955225z m-251.238641-71.517982a562.438916 562.438916 0 0 1-27.950243 46.285124 412.594558 412.594558 0 0 1 226.722456 367.444166v13.586923h-91.853576v-13.586923a318.635755 318.635755 0 0 0-192.889523-293.23866 168.537576 168.537576 0 0 1-232.500632 0.746535 294.55256 294.55256 0 0 0-104.380421 64.799174h-36.505526v-85.254213a401.336821 401.336821 0 0 1 83.925382-54.049081 523.081629 523.081629 0 0 1-28.368302-46.733045c-45.867065-85.254213-76.684-194.54683-76.683999-271.88778a278.561796 278.561796 0 1 1 557.108661 0c0.059723 77.34095-30.757212 186.633566-76.624277 271.88778zM529.725972 93.818305a186.947111 186.947111 0 0 0-186.633566 186.782873c0 59.872048 24.39674 146.022102 62.156443 219.630381 40.073959 78.087484 86.597975 124.521916 124.551777 124.521916s84.462887-46.434431 124.536846-124.521916c37.759703-73.608279 62.156443-159.758333 62.156443-219.630381A186.93218 186.93218 0 0 0 529.725972 93.818305zM327.519701 904.703824h-119.997918v119.146869H118.13177v-119.146869H0.000188v-89.434805h118.131582v-119.146868h89.464667v119.146868h119.997917v89.434805z m416.77515 74.802734h-148.381151v-74.50412h148.321428v74.50412z" fill="#d42379" p-id="5038"></path></svg>